<?xml version="1.0" encoding="utf-8"?>
<!-- Generator: Adobe Illustrator 25.3.0, SVG Export Plug-In . SVG Version: 6.00 Build 0)  -->
<svg version="1.1" id="Layer_1" xmlns="http://www.w3.org/2000/svg" xmlns:xlink="http://www.w3.org/1999/xlink" x="0px" y="0px"
	 viewBox="0 0 100 100" style="enable-background:new 0 0 100 100;" xml:space="preserve">
<style type="text/css">
	.st0{fill:#808080;}
</style>
<path class="st0" d="M74.6,36.6v12.3c0.1,1.2,0.7,2.2,1.7,2.8c1,0.6,2.2,0.6,3.3,0c1-0.6,1.7-1.6,1.7-2.8V32.5
	c0-3.3-1.3-6.4-3.6-8.7L62.9,8.9c-2.3-2.3-5.4-3.6-8.7-3.6H22.1c-3.3,0-6.4,1.3-8.7,3.6c-2.3,2.3-3.6,5.4-3.6,8.7v64.9
	c0,3.3,1.3,6.4,3.6,8.7c2.3,2.3,5.5,3.6,8.7,3.6h22.3c0.9,0.1,1.8-0.3,2.5-0.9c0.7-0.6,1.1-1.5,1.1-2.4c0-0.9-0.4-1.8-1.1-2.4
	c-0.7-0.6-1.6-1-2.5-0.9H22.1c-1.5,0-2.9-0.6-4-1.6s-1.6-2.5-1.6-4V17.6c0-1.5,0.6-2.9,1.6-4c1-1,2.5-1.6,4-1.6H50v16.8
	c0,2.1,0.8,4.1,2.3,5.5c1.5,1.5,3.5,2.3,5.5,2.3L74.6,36.6z M56.7,28.8V12.7c0.5,0.2,1,0.5,1.4,0.9L73,28.5c0.4,0.4,0.7,0.9,0.9,1.4
	H57.8c-0.3,0-0.6-0.1-0.8-0.3C56.8,29.3,56.7,29,56.7,28.8L56.7,28.8z M86.9,62.3c-2.1-2.1-5-3.3-8.1-3.3c-3,0-5.9,1.2-8.1,3.3
	l-14,14c-1.5,1.5-2.3,3.5-2.3,5.6v8.3v0c0,1.2,0.5,2.3,1.3,3.2c0.8,0.8,2,1.3,3.2,1.3h8.3c2.1,0,4.1-0.8,5.6-2.3l14-14
	c2.1-2.1,3.3-5,3.3-8C90.3,67.3,89.1,64.4,86.9,62.3L86.9,62.3z M82.2,73.6l-14.1,14c-0.2,0.2-0.5,0.4-0.9,0.4h-6.1v-6.1
	c0-0.3,0.1-0.6,0.4-0.9L75.6,67c1.2-1.2,2.9-1.6,4.5-1.2c1.6,0.4,2.9,1.7,3.3,3.3C83.8,70.7,83.4,72.4,82.2,73.6L82.2,73.6z"/>
</svg>
