<?xml version="1.0" encoding="utf-8"?>
<!-- Generator: Adobe Illustrator 25.3.0, SVG Export Plug-In . SVG Version: 6.00 Build 0)  -->
<svg version="1.1" id="Layer_1" xmlns="http://www.w3.org/2000/svg" xmlns:xlink="http://www.w3.org/1999/xlink" x="0px" y="0px"
	 viewBox="0 0 30 30" style="enable-background:new 0 0 30 30;" xml:space="preserve">
<style type="text/css">
	.st0{fill-rule:evenodd;clip-rule:evenodd;fill:#808080;}
</style>
<path class="st0" d="M21.8,2.6c1-1,2.7-1,3.7,0l1.9,1.9c1,1,1,2.7,0,3.7L15.7,19.9c-0.2,0.2-0.6,0.4-0.9,0.4h-4.4
	c-0.4,0-0.7-0.3-0.7-0.7v-4.4c0-0.3,0.1-0.7,0.4-0.9L21.8,2.6z M4.5,5.8c0-0.7,0.6-1.3,1.3-1.3h10.5c0.7,0,1.3-0.6,1.3-1.3
	S17,1.9,16.3,1.9H5.8c-2.2,0-3.9,1.8-3.9,3.9v18.4c0,2.2,1.8,3.9,3.9,3.9h18.4c2.2,0,3.9-1.8,3.9-3.9V13.7c0-0.7-0.6-1.3-1.3-1.3
	c-0.7,0-1.3,0.6-1.3,1.3v10.5c0,0.7-0.6,1.3-1.3,1.3H5.8c-0.7,0-1.3-0.6-1.3-1.3V5.8z"/>
</svg>
