<?xml version="1.0" encoding="utf-8"?>
<!-- Generator: Adobe Illustrator 25.3.0, SVG Export Plug-In . SVG Version: 6.00 Build 0)  -->
<svg version="1.1" id="Layer_1" xmlns="http://www.w3.org/2000/svg" xmlns:xlink="http://www.w3.org/1999/xlink" x="0px" y="0px"
	 viewBox="0 0 30 30" style="enable-background:new 0 0 30 30;" xml:space="preserve">
<style type="text/css">
	.st0{fill-rule:evenodd;clip-rule:evenodd;fill:#808080;}
</style>
<path class="st0" d="M8.7,4.4H3.4c-0.5,0-1,0.4-1,1v2.9c0,0.5,0.4,1,1,1h1.1l1.7,16.7c0.1,1.5,1.4,2.6,2.9,2.6h12
	c1.5,0,2.7-1.1,2.9-2.6l1.7-16.7h1.1c0.5,0,1-0.4,1-1V5.3c0-0.5-0.4-1-1-1h-5.3l-1.1-1.6c-0.5-0.8-1.4-1.3-2.4-1.3h-5.7
	c-1,0-1.9,0.5-2.4,1.3L8.7,4.4z M23.6,9.2H6.4l1.7,16.5c0,0.5,0.5,0.9,1,0.9h12c0.5,0,0.9-0.4,1-0.9L23.6,9.2z M17.9,13.1v9.7
	c0,0.5,0.4,1,1,1c0.5,0,1-0.4,1-1v-9.7c0-0.5-0.4-1-1-1C18.3,12.1,17.9,12.5,17.9,13.1z M10.2,13.1v9.7c0,0.5,0.4,1,1,1
	c0.5,0,1-0.4,1-1v-9.7c0-0.5-0.4-1-1-1C10.6,12.1,10.2,12.5,10.2,13.1z M14,13.1v9.7c0,0.5,0.4,1,1,1c0.5,0,1-0.4,1-1v-9.7
	c0-0.5-0.4-1-1-1C14.5,12.1,14,12.5,14,13.1z M4.4,7.3h21.3v-1H4.4L4.4,7.3L4.4,7.3z M19,4.4l-0.4-0.5c-0.2-0.3-0.5-0.4-0.8-0.4
	h-5.7c-0.3,0-0.6,0.2-0.8,0.4L11,4.4H19z"/>
</svg>
