<?xml version="1.0" encoding="utf-8"?>
<!-- Generator: Adobe Illustrator 25.3.0, SVG Export Plug-In . SVG Version: 6.00 Build 0)  -->
<svg version="1.1" id="Layer_1" xmlns="http://www.w3.org/2000/svg" xmlns:xlink="http://www.w3.org/1999/xlink" x="0px" y="0px"
	 viewBox="0 0 56 56" style="enable-background:new 0 0 56 56;" xml:space="preserve">
<style type="text/css">
	.st0{fill:#FFFFFF;}
</style>
<path class="st0" d="M29.8,41.7c2.6-2.6,6.9-2.6,9.2,0l0.5,0.5l5.3-5.3l0-14.2H31.7c-4.5,0-7.9-3.4-7.9-7.9l0-13.2H10.9
	C6.4,1.6,3,5.1,3,9.5v36.9c0,4.5,3.4,7.9,7.9,7.9h22.4l-3.2-3.2C27.5,48.6,27.5,44.3,29.8,41.7L29.8,41.7z M16.1,17.5h2.6
	c1.6,0,2.6,1.1,2.6,2.6c0,1.6-1.1,2.6-2.6,2.6h-2.6c-1.6,0-2.6-1.1-2.6-2.6C13.5,18.5,14.6,17.5,16.1,17.5z M16.1,28H32
	c1.6,0,2.6,1.1,2.6,2.6c0,1.6-1.1,2.6-2.6,2.6l-15.8,0c-1.6,0-2.6-1.1-2.6-2.6C13.5,29.1,14.6,28,16.1,28L16.1,28z M21.4,43.8h-5.3
	c-1.6,0-2.6-1.1-2.6-2.6c0-1.6,1.1-2.6,2.6-2.6h5.3c1.6,0,2.6,1.1,2.6,2.6C24,42.8,23,43.8,21.4,43.8z M32,17.5h11.6L29.3,3.2v11.6
	C29.3,16.4,30.4,17.5,32,17.5L32,17.5z M52.3,39.3c-1.1-1.1-2.6-1.1-3.7,0L39.9,48l-3.4-3.4c-1.1-1.1-2.6-1.1-3.7,0
	c-1.1,1.1-1.1,2.6,0,3.7l5.3,5.3c1.1,1.1,2.6,1.1,3.7,0L52.3,43C53.3,42,53.3,40.4,52.3,39.3L52.3,39.3z"/>
</svg>
